<?xml version="1.0" encoding="UTF-8"?>
<svg id="Layer_1" data-name="Layer 1" xmlns="http://www.w3.org/2000/svg" viewBox="0 0 500 500" >
  <path id="favicon-logo" fill="#eeeeee" d="M326.95,247.55c-1.92,10.88-2.88,21.97-2.88,33.3,0,16.71,3.27,29.26,9.85,37.62,6.58,8.36,15.9,12.53,28,12.53,10.34,0,20.47-1.37,30.35-4.14,9.88-2.76,44.17-14.15,56.85-19.93l-13.15,65.74c-12.45,6.04-34.89,12.66-47.63,15.29-12.72,2.65-25.73,3.96-38.98,3.96-21.27,0-38.9-4.5-52.86-13.48-2.19-1.4-4.29-2.92-6.3-4.52l-2.81,14.22h-61.22l20.4-103.53c3.85-19.23,7.22-35.02,10.11-47.34,2.91-12.32,5.33-22.17,7.25-29.51,1.91-7.36,3.27-13.17,4.09-17.46h-1.4l-84.06,197.84h-64.54v-197.84h-1.4c-1.86,12.96-3.65,25.24-5.39,36.87-1.74,11.64-3.4,22.42-4.98,32.35-1.56,9.94-3.11,19.04-4.62,27.34l-19.71,101.28H21.23L75.14,112.42h90.34v195.76h1.4l83.37-195.76h91.74s29.94-4.34,48.55-4.34c16.97,0,32.21,2.17,45.69,6.51,13.5,4.34,22.77,7.41,45.79,18.08l-11.51,60.44c-18.08-7.11-36.17-14.22-51.72-18.36-9.32-2.48-18.48-5.19-28.24-5.19-8.27,0-15.85,2.01-22.77,6.04-6.92,4.02-13.07,9.62-18.48,16.78-5.41,7.16-10.01,15.43-13.78,24.8-3.78,9.37-6.64,19.48-8.55,30.36Z"/>

  
</svg>