<svg id="Layer_2" data-name="Layer 2" xmlns="http://www.w3.org/2000/svg" viewBox="0 0 268 103">

  <path class="" fill=" #a435f0" d="M42.81,25.68l-20.7-11.96L1.42,25.68v-11.96L22.11,1.76l20.7,11.96v11.96h0Z"/>
  <path d="M12.26,35.72v26.36c0,6.81,5.08,10.13,9.85,10.13s9.86-3.41,9.86-10.22v-26.27h10.84v26.99c0,6.27-1.97,11.11-5.91,14.43-3.95,3.32-8.87,4.93-14.88,4.93s-10.93-1.61-14.78-4.93c-3.85-3.32-5.82-7.98-5.82-14.17v-27.25h10.84ZM136.54,68.48l8.05,4.65c-4.91,5.6-11.46,8.85-19.69,8.85-7.08,0-12.9-2.15-17.29-6.36-4.39-4.22-6.63-9.87-6.63-16.95v-.35c0-7.18,2.24-12.91,6.63-17.31,4.48-4.39,10.13-6.54,17.03-6.54s11.92,2.15,16.03,6.54c4.21,4.39,6.27,9.77,6.27,16.23,0,2.08-.24,4.3-.24,4.3h-35.03c.59,6.87,5.8,11.3,13.58,11.3,4.26,0,8-1.44,11.28-4.36h0ZM115.94,46.48c-2.31,1.8-3.64,4.01-3.99,6.63h24.04c-.1-2.54-1.26-4.75-3.39-6.54-2.24-1.97-4.84-2.96-7.98-2.96-3.31,0-6.27.99-8.69,2.87h0ZM245.67,88.07c-4.4,10.39-9,13.93-16.05,13.93h-4.89v-9.62h3.96c2.43,0,4.68-.91,6.83-5.88l2.15-4.97-18.55-45.81h11.02l13.17,33,13.53-33h11.02l-22.19,52.35h0ZM85.02,18.42h10.75v62.49h-10.75v-4.16c-2.45,2.26-7.09,5.15-14.43,5.15-6.36,0-11.74-2.24-16.12-6.73-4.3-4.57-6.45-10.13-6.45-16.86s2.15-12.28,6.45-16.77c4.39-4.57,9.76-6.81,16.12-6.81,5.34,0,10.87,1.89,14.43,5.08v-21.39ZM85.83,58.32c0-3.95-1.35-7.27-4.04-9.86-2.6-2.6-5.91-3.95-9.77-3.95s-6.99,1.35-9.58,3.95c-2.51,2.6-3.76,5.91-3.76,9.86s1.26,7.26,3.76,9.86c2.6,2.6,5.73,3.95,9.58,3.95s7.17-1.35,9.77-3.95c2.69-2.6,4.04-5.92,4.04-9.86ZM202.4,34.83c9.35,0,15.68,6.32,15.68,18.11v27.97h-10.75v-26.45c0-6.18-2.96-10.04-8.07-10.04s-8.95,4.31-8.95,10.49v26.01h-10.66v-26.45c0-6.19-2.95-10.04-8.07-10.04s-8.78,4.39-8.78,10.49v26h-10.66v-45.18h10.66v4.7c1.9-2.33,5.71-5.6,12.19-5.6,7.65,0,10.93,4.44,12.09,6.66,2.91-3.27,7.15-6.66,15.32-6.66h0Z"/>
</svg>